{"asset":{"version":"2.0","generator":"babylon.js glTF exporter for 3dsmax 2021 v20210624.1"},"extensionsUsed":["KHR_materials_pbrSpecularGlossiness"],"scene":0,"scenes":[{"nodes":[0]}],"nodes":[{"mesh":0,"translation":[0.05,3.4820383E-17,-0.05],"scale":[0.393700778,0.393700778,0.393700778],"name":"Cube"}],"meshes":[{"primitives":[{"attributes":{"POSITION":1,"NORMAL":2,"TEXCOORD_0":3},"indices":0,"material":0}],"name":"Cube"}],"accessors":[{"bufferView":0,"componentType":5123,"count":15696,"type":"SCALAR","name":"accessorIndices"},{"bufferView":1,"componentType":5126,"count":15696,"max":[0.127991363,0.252569467,0.38056466],"min":[-0.3819914,-0.252569467,-0.1265647],"type":"VEC3","name":"accessorPositions"},{"bufferView":1,"byteOffset":188352,"componentType":5126,"count":15696,"type":"VEC3","name":"accessorNormals"},{"bufferView":2,"componentType":5126,"count":15696,"type":"VEC2","name":"accessorUVs"}],"bufferViews":[{"buffer":0,"byteLength":31392,"name":"bufferViewScalar"},{"buffer":0,"byteOffset":31392,"byteLength":376704,"byteStride":12,"name":"bufferViewFloatVec3"},{"buffer":0,"byteOffset":408096,"byteLength":125568,"byteStride":8,"name":"bufferViewFloatVec2"}],"buffers":[{"uri":"PortalCubeBabylon.bin","byteLength":533664}],"materials":[{"alphaMode":"BLEND","doubleSided":true,"name":"Material #44","extensions":{"KHR_materials_pbrSpecularGlossiness":{"diffuseTexture":{"index":0},"specularFactor":[0.0,0.0,0.0],"glossinessFactor":0.0}},"extras":{"babylonSeparateCullingPass":false}}],"textures":[{"sampler":0,"source":0,"name":"DefaultMaterial_baseColor.png"}],"images":[{"uri":"textures/DefaultMaterial_baseColor.png"}],"samplers":[{"magFilter":9729,"minFilter":9987}]}